<svg width="699" height="3855" viewBox="0 0 699 3855" fill="none" xmlns="http://www.w3.org/2000/svg">
<g clip-path="url(#clip0_511_3)">
<path d="M412.775 1730.79C372.285 1835.14 350.454 2194.36 366.716 2378C384.683 2580.79 497.025 2549.99 509.917 2500.53C522.808 2451.09 417.421 2292.85 431.802 2106.26C447.773 1899.14 527.971 1898.86 525.788 1810.42C523.642 1723.4 459.579 1610.18 412.775 1730.79Z" stroke="#14AE5C" stroke-opacity="0.04" stroke-width="5" stroke-miterlimit="10"/>
<path d="M400.099 1705.27C352.639 1796.21 332.047 2231.01 352.967 2435.85C376.679 2667.87 498.731 2581.87 516.848 2545.15C532.466 2513.55 431.082 2300.75 443.204 2075.28C456.359 1830.31 528.691 1790.53 523.288 1733.69C517.479 1672.76 455.791 1598.81 400.099 1705.27Z" stroke="#14AE5C" stroke-opacity="0.04" stroke-width="5" stroke-miterlimit="10"/>
<path d="M387.424 1679.81C333.07 1757.05 313.677 2267.62 339.218 2493.67C368.725 2755.12 499.463 2613.02 523.78 2589.83C541.457 2572.78 444.832 2308.94 454.591 2044.19C465.009 1761.83 531.04 1679.01 520.788 1657.36C513.138 1618.99 452.205 1587.68 387.424 1679.81Z" stroke="#14AE5C" stroke-opacity="0.04" stroke-width="5" stroke-miterlimit="10"/>
<path d="M374.747 1654.12C313.537 1718.23 295.344 2304 325.507 2551.35C360.858 2841.68 501.926 2685.21 530.749 2634.34C548.804 2602.45 458.67 2317.01 466.018 2013.16C473.757 1693.39 532.606 1569.04 518.326 1580.8C507.884 1566.76 448.607 1576.88 374.747 1654.12Z" stroke="#14AE5C" stroke-opacity="0.04" stroke-width="5" stroke-miterlimit="10"/>
<path d="M362.069 1628.77C294.03 1679.93 277.036 2340.6 311.719 2609.38C352.929 2928.81 501.104 2719.53 537.642 2679.12C558.146 2656.39 472.469 2325.48 477.38 1982.36C482.431 1625.19 535.458 1473.61 515.787 1504.47C503.188 1524.19 445.033 1566.36 362.069 1628.77Z" stroke="#14AE5C" stroke-opacity="0.04" stroke-width="5" stroke-miterlimit="10"/>
<path d="M349.407 1603.25C274.525 1641.73 258.743 2377.09 297.97 2667.19C345.076 3015.65 500.512 2692.99 544.587 2724.03C567.428 2740 486.359 2334.01 488.782 1951.55C491.307 1557.1 537.392 1360.95 513.288 1428.25C498.29 1469.85 441.473 1556.02 349.407 1603.25Z" stroke="#14AE5C" stroke-opacity="0.04" stroke-width="5" stroke-miterlimit="10"/>
<path d="M336.732 1577.79C255.019 1603.59 240.462 2413.3 284.21 2725.05C337.238 3102.45 501.055 2716.41 551.508 2768.42C576.191 2793.87 500.235 2342.14 500.159 1920.34C500.083 1488.38 538.919 1248.53 510.777 1351.52C493.127 1416.15 437.914 1545.79 336.732 1577.79Z" stroke="#14AE5C" stroke-opacity="0.04" stroke-width="5" stroke-miterlimit="10"/>
<path d="M324.054 1552.27C235.509 1565.57 222.215 2449.84 270.458 2782.9C329.369 3189.24 501.735 2738.97 558.436 2813.09C585.026 2847.81 514.146 2350.32 511.557 1889.37C508.919 1420.12 540.345 1137.02 508.274 1275.07C487.871 1362.83 434.327 1535.73 324.054 1552.27Z" stroke="#14AE5C" stroke-opacity="0.04" stroke-width="5" stroke-miterlimit="10"/>
<path d="M311.379 1526.75C216.004 1527.6 203.909 2486.21 256.709 2840.76C321.529 3276.02 502.531 2761.19 565.37 2857.82C593.928 2901.75 528.072 2358.67 522.946 1858.45C517.758 1351.8 541.746 1026.01 505.776 1198.62C482.569 1309.85 430.779 1525.73 311.379 1526.75Z" stroke="#14AE5C" stroke-opacity="0.04" stroke-width="5" stroke-miterlimit="10"/>
<path d="M298.703 1501.28C196.434 1489.92 185.64 2522.53 242.96 2898.57C313.664 3362.71 503.428 2782.79 572.3 2902.38C602.879 2955.47 541.999 2366.86 534.335 1827.42C526.608 1283.37 543.172 915.123 503.264 1122.07C477.254 1257.06 427.206 1515.84 298.703 1501.28Z" stroke="#14AE5C" stroke-opacity="0.04" stroke-width="5" stroke-miterlimit="10"/>
<path d="M286.026 1475.76C176.966 1451.84 167.345 2558.86 229.211 2956.43C305.873 3449.44 504.451 2804.33 579.232 2947.05C611.869 3009.23 555.95 2375.1 545.736 1796.44C535.471 1214.94 544.549 804.515 500.764 1045.62C471.927 1204.37 423.621 1506 286.026 1475.76Z" stroke="#14AE5C" stroke-opacity="0.04" stroke-width="5" stroke-miterlimit="10"/>
<path d="M273.35 1450.24C157.446 1413.98 149.126 2595.17 215.461 3014.29C298.058 3536.11 505.422 2825.7 586.162 2991.55C620.871 3062.94 569.889 2383.39 557.124 1765.29C544.334 1146.39 545.951 693.853 498.263 969C466.61 1151.73 420.034 1496.17 273.35 1450.24Z" stroke="#14AE5C" stroke-opacity="0.04" stroke-width="5" stroke-miterlimit="10"/>
<path d="M260.674 1424.78C137.916 1376.19 130.87 2631.72 201.714 3072.1C290.244 3622.79 506.497 2847.02 593.109 3036.35C629.924 3116.82 583.853 2391.52 568.527 1734.43C553.199 1077.33 547.352 583.532 495.765 892.498C461.285 1099.16 416.45 1486.45 260.674 1424.78Z" stroke="#14AE5C" stroke-opacity="0.04" stroke-width="5" stroke-miterlimit="10"/>
<path d="M247.999 1399.26C118.384 1338.39 112.614 2667.75 187.951 3129.95C282.429 3709.69 507.62 2868.5 600.027 3081.02C638.977 3170.65 597.805 2399.71 579.915 1703.45C562.075 1009.64 548.768 473.211 493.252 816.17C455.956 1046.64 412.865 1476.67 247.999 1399.26Z" stroke="#14AE5C" stroke-opacity="0.04" stroke-width="5" stroke-miterlimit="10"/>
<path d="M235.32 1373.74C98.8499 1300.59 94.5572 2703.39 174.238 3187.81C274.902 3795.29 508.817 2889.42 606.995 3125.64C648.079 3224.48 611.805 2407.89 591.339 1672.47C570.986 941.212 550.217 362.833 490.788 739.667C450.626 994.123 409.251 1467.01 235.32 1373.74Z" stroke="#14AE5C" stroke-opacity="0.04" stroke-width="5" stroke-miterlimit="10"/>
<path d="M222.646 1348.28C79.3194 1262.85 76.2892 2739.71 160.452 3245.57C267.025 3882.14 509.943 2910.22 613.89 3170.2C657.133 3278.19 625.732 2415.97 602.691 1641.28C579.839 872.491 551.595 252.342 488.251 662.935C445.299 941.608 405.655 1457.29 222.646 1348.28Z" stroke="#14AE5C" stroke-opacity="0.04" stroke-width="5" stroke-miterlimit="10"/>
<path d="M209.97 1322.76C59.7245 1225.11 58.0073 2776.08 146.703 3303.48C259.185 3968.47 511.129 2931.71 620.821 3214.92C666.273 3332.18 640 2424.09 614.079 1610.47C589.017 804.058 553.009 142.248 485.752 586.715C439.972 889.147 402.043 1447.63 209.97 1322.76Z" stroke="#14AE5C" stroke-opacity="0.04" stroke-width="5" stroke-miterlimit="10"/>
<path d="M197.295 1297.24C40.1935 1188.62 39.7264 2812.46 132.954 3361.34C251.345 4055.55 512.343 2952.85 627.767 3259.6C675.328 3386.01 653.901 2432.28 625.48 1579.49C597.844 735.632 554.423 32.0418 483.241 510.213C434.645 836.687 398.384 1439.56 197.295 1297.24Z" stroke="#14AE5C" stroke-opacity="0.04" stroke-width="5" stroke-miterlimit="10"/>
<path d="M184.617 1271.77C20.6592 1150.6 21.4673 2848.78 119.202 3419.2C243.49 4142.29 513.564 2973.94 634.695 3304.28C684.428 3439.89 667.813 2440.35 636.867 1548.51C606.667 667.198 555.849 -78.2233 480.738 433.767C429.276 784.508 394.782 1429.55 184.617 1271.77Z" stroke="#14AE5C" stroke-opacity="0.04" stroke-width="5" stroke-miterlimit="10"/>
<path d="M171.94 1246.26C1.12777 1112.57 3.17312 2885.15 105.454 3477.01C235.649 4228.84 514.815 2995.08 641.627 3348.9C693.544 3493.77 681.789 2448.7 648.256 1517.71C615.428 598.936 557.061 -188.885 478.238 357.435C423.835 731.369 391.185 1419.5 171.94 1246.26Z" stroke="#14AE5C" stroke-opacity="0.04" stroke-width="5" stroke-miterlimit="10"/>
<path d="M159.265 1220.74C-18.4025 1074.38 -15.1451 2921.59 91.7058 3534.86C227.811 4315.75 516.067 3016.23 648.561 3393.34C702.675 3547.48 695.641 2456.66 659.658 1486.34C624.319 530.276 558.59 -298.922 475.741 280.76C418.584 679.19 387.613 1409.72 159.265 1220.74Z" stroke="#14AE5C" stroke-opacity="0.04" stroke-width="5" stroke-miterlimit="10"/>
<path d="M473.228 204.313C413.332 626.956 383.976 1399.43 146.589 1195.27C-37.9476 1036.53 -33.3897 2957.85 77.9432 3592.72C219.97 4402.54 517.317 3037.37 655.491 3438.18C767.228 3762.38 648.383 -1031.73 473.228 204.313Z" stroke="#14AE5C" stroke-opacity="0.04" stroke-width="5" stroke-miterlimit="10"/>
</g>
<defs>
<clipPath id="clip0_511_3">
<rect width="699" height="3855" fill="white"/>
</clipPath>
</defs>
</svg>
