<svg width="18" height="18" viewBox="0 0 18 18" fill="none" xmlns="http://www.w3.org/2000/svg">
<path d="M14.2412 1.50928L16.4914 3.75951L14.7762 5.47456L12.5261 3.22433L14.2412 1.50928Z" fill="white"/>
<path d="M6 11.9999H8.25L13.7152 6.53467L11.4652 4.28467L6 9.74992V11.9999Z" fill="white"/>
<path d="M14.25 14.25H6.1185C6.099 14.25 6.07875 14.2575 6.05925 14.2575C6.0345 14.2575 6.00975 14.2508 5.98425 14.25H3.75V3.75H8.88525L10.3853 2.25H3.75C2.92275 2.25 2.25 2.922 2.25 3.75V14.25C2.25 15.078 2.92275 15.75 3.75 15.75H14.25C15.078 15.75 15.75 15.078 15.75 14.25V7.749L14.25 9.249V14.25Z" fill="white"/>
</svg>
