<svg width="24" height="25" viewBox="0 0 24 25" fill="none" xmlns="http://www.w3.org/2000/svg">
<path d="M20.6257 3.37256H3.37573C2.96089 3.37256 2.62573 3.70771 2.62573 4.12256V21.3726C2.62573 21.7874 2.96089 22.1226 3.37573 22.1226H20.6257C21.0406 22.1226 21.3757 21.7874 21.3757 21.3726V4.12256C21.3757 3.70771 21.0406 3.37256 20.6257 3.37256ZM18.4601 8.84521H16.9625C15.7882 8.84521 15.5609 9.40303 15.5609 10.2233V12.0304H18.364L17.9984 14.8593H15.5609V22.1226H12.6382V14.8616H10.1937V12.0304H12.6382V9.94443C12.6382 7.52334 14.1171 6.20381 16.2781 6.20381C17.314 6.20381 18.2023 6.28115 18.4625 6.31631V8.84521H18.4601Z" fill="#142E20" fill-opacity="0.62"/>
</svg>
