<svg width="21" height="20" viewBox="0 0 21 20" fill="none" xmlns="http://www.w3.org/2000/svg">
<g clip-path="url(#clip0_276_2107)">
<path d="M20.4895 10.1871C20.4895 9.36767 20.4214 8.76973 20.2742 8.14966H10.6992V11.848H16.3195C16.2062 12.7671 15.5943 14.1512 14.2346 15.0813L14.2155 15.2051L17.2429 17.4969L17.4527 17.5174C19.3789 15.7789 20.4895 13.221 20.4895 10.1871" fill="#0F8547"/>
<path d="M10.6993 19.9313C13.4527 19.9313 15.7643 19.0454 17.4527 17.5174L14.2346 15.0813C13.3734 15.6682 12.2176 16.0779 10.6993 16.0779C8.00242 16.0779 5.71352 14.3395 4.89759 11.9366L4.77799 11.9466L1.63003 14.3273L1.58887 14.4391C3.26588 17.6945 6.7106 19.9313 10.6993 19.9313Z" fill="#298353"/>
<path d="M4.89748 11.9367C4.68219 11.3166 4.55759 10.6522 4.55759 9.96571C4.55759 9.27915 4.68219 8.61479 4.88615 7.99472L4.88045 7.86266L1.69304 5.44373L1.58876 5.4922C0.897576 6.84311 0.500977 8.36014 0.500977 9.96571C0.500977 11.5713 0.897576 13.0882 1.58876 14.4391L4.89748 11.9367" fill="#0F8747"/>
<path d="M10.6993 3.85336C12.6142 3.85336 13.906 4.66168 14.6425 5.33718L17.5207 2.59107C15.753 0.985496 13.4527 0 10.6993 0C6.7106 0 3.26588 2.23672 1.58887 5.49214L4.88626 7.99466C5.71352 5.59183 8.00242 3.85336 10.6993 3.85336" fill="#0F8547"/>
</g>
<defs>
<clipPath id="clip0_276_2107">
<rect width="20" height="20" fill="white" transform="translate(0.5)"/>
</clipPath>
</defs>
</svg>
