<svg width="19" height="19" viewBox="0 0 19 19" fill="none" xmlns="http://www.w3.org/2000/svg">
<path fill-rule="evenodd" clip-rule="evenodd" d="M18.5 9.5C18.5002 13.8747 15.3546 17.616 11.0448 18.3669C6.73497 19.1178 2.50942 16.6608 1.03014 12.5437C-0.449138 8.42669 1.24636 3.84222 5.04851 1.67843C8.85067 -0.485358 13.6581 0.398339 16.4422 3.77281C16.6245 3.97796 16.6802 4.26631 16.5874 4.52461C16.4946 4.78291 16.2682 4.96989 15.997 5.01211C15.7258 5.05433 15.4532 4.94505 15.2862 4.72719C13.0117 1.96926 9.1068 1.20004 5.95621 2.88926C2.80563 4.57849 1.28521 8.25659 2.32346 11.6774C3.36172 15.0981 6.67002 17.3106 10.228 16.9637C13.786 16.6168 16.6046 13.8069 16.9625 10.25H9.5C9.08579 10.25 8.75 9.91421 8.75 9.5C8.75 9.08579 9.08579 8.75 9.5 8.75H17.75C18.1642 8.75 18.5 9.08579 18.5 9.5Z" fill="white"/>
</svg>
