<svg width="24" height="25" viewBox="0 0 24 25" fill="none" xmlns="http://www.w3.org/2000/svg">
<path d="M12 7.24992C8.95984 7.24992 6.50627 9.70349 6.50627 12.7437C6.50627 15.7838 8.95984 18.2374 12 18.2374C15.0402 18.2374 17.4938 15.7838 17.4938 12.7437C17.4938 9.70349 15.0402 7.24992 12 7.24992ZM12 16.3142C10.034 16.3142 8.42949 14.7097 8.42949 12.7437C8.42949 10.7776 10.034 9.17313 12 9.17313C13.9661 9.17313 15.5706 10.7776 15.5706 12.7437C15.5706 14.7097 13.9661 16.3142 12 16.3142ZM17.7188 5.74456C17.009 5.74456 16.4357 6.31777 16.4357 7.0276C16.4357 7.73742 17.009 8.31063 17.7188 8.31063C18.4286 8.31063 19.0018 7.7401 19.0018 7.0276C19.002 6.85905 18.969 6.69211 18.9046 6.53635C18.8402 6.38059 18.7457 6.23906 18.6265 6.11988C18.5073 6.0007 18.3658 5.9062 18.21 5.8418C18.0543 5.77739 17.8873 5.74435 17.7188 5.74456ZM22.709 12.7437C22.709 11.2651 22.7223 9.79992 22.6393 8.32402C22.5563 6.60974 22.1652 5.08831 20.9116 3.83474C19.6554 2.57849 18.1366 2.1901 16.4223 2.10706C14.9438 2.02402 13.4786 2.03742 12.0027 2.03742C10.5241 2.03742 9.05895 2.02402 7.58306 2.10706C5.86877 2.1901 4.34734 2.58117 3.09377 3.83474C1.83752 5.09099 1.44913 6.60974 1.36609 8.32402C1.28306 9.8026 1.29645 11.2678 1.29645 12.7437C1.29645 14.2196 1.28306 15.6874 1.36609 17.1633C1.44913 18.8776 1.8402 20.399 3.09377 21.6526C4.35002 22.9088 5.86877 23.2972 7.58306 23.3803C9.06163 23.4633 10.5268 23.4499 12.0027 23.4499C13.4813 23.4499 14.9465 23.4633 16.4223 23.3803C18.1366 23.2972 19.6581 22.9062 20.9116 21.6526C22.1679 20.3963 22.5563 18.8776 22.6393 17.1633C22.725 15.6874 22.709 14.2222 22.709 12.7437ZM20.3518 19.0597C20.1563 19.5472 19.9206 19.9115 19.5429 20.2865C19.1652 20.6642 18.8036 20.8999 18.3161 21.0955C16.9072 21.6553 13.5616 21.5294 12 21.5294C10.4384 21.5294 7.0902 21.6553 5.68127 21.0981C5.19377 20.9026 4.82949 20.6669 4.45449 20.2892C4.07681 19.9115 3.84109 19.5499 3.64556 19.0624C3.08842 17.6508 3.21431 14.3053 3.21431 12.7437C3.21431 11.1821 3.08842 7.83385 3.64556 6.42492C3.84109 5.93742 4.07681 5.57313 4.45449 5.19813C4.83217 4.82313 5.19377 4.58474 5.68127 4.3892C7.0902 3.83206 10.4384 3.95795 12 3.95795C13.5616 3.95795 16.9098 3.83206 18.3188 4.3892C18.8063 4.58474 19.1706 4.82045 19.5456 5.19813C19.9232 5.57581 20.159 5.93742 20.3545 6.42492C20.9116 7.83385 20.7857 11.1821 20.7857 12.7437C20.7857 14.3053 20.9116 17.6508 20.3518 19.0597Z" fill="#142E20" fill-opacity="0.62"/>
</svg>
