<svg width="40" height="40" viewBox="0 0 40 40" fill="none" xmlns="http://www.w3.org/2000/svg">
<path d="M8.33314 21.6667C8.33314 24.414 9.44101 26.9025 11.2344 28.7099C11.4073 28.8842 11.4938 28.9714 11.5449 29.0552C11.5936 29.1352 11.6219 29.204 11.6437 29.2951C11.6665 29.3906 11.6665 29.4992 11.6665 29.7164V33.6667C11.6665 34.1334 11.6665 34.3667 11.7573 34.545C11.8372 34.7018 11.9647 34.8293 12.1215 34.9092C12.2997 35 12.5331 35 12.9998 35H16.1665C16.6332 35 16.8665 35 17.0448 34.9092C17.2016 34.8293 17.3291 34.7018 17.409 34.545C17.4998 34.3667 17.4998 34.1334 17.4998 33.6667V33C17.4998 32.5333 17.4998 32.2999 17.5906 32.1217C17.6705 31.9649 17.798 31.8374 17.9548 31.7575C18.1331 31.6667 18.3664 31.6667 18.8331 31.6667H21.1665C21.6332 31.6667 21.8665 31.6667 22.0448 31.7575C22.2016 31.8374 22.3291 31.9649 22.409 32.1217C22.4998 32.2999 22.4998 32.5333 22.4998 33V33.6667C22.4998 34.1334 22.4998 34.3667 22.5906 34.545C22.6705 34.7018 22.798 34.8293 22.9548 34.9092C23.1331 35 23.3664 35 23.8331 35H26.9999C27.4666 35 27.7 35 27.8782 34.9092C28.035 34.8293 28.1625 34.7018 28.2424 34.545C28.3333 34.3667 28.3333 34.1334 28.3333 33.6667V32.0406C28.3333 31.7038 28.3333 31.5354 28.3812 31.4002C28.4271 31.2707 28.485 31.18 28.5832 31.0837C28.6856 30.9833 28.8591 30.9028 29.2061 30.7417C30.8431 29.9817 32.24 28.7918 33.2518 27.3169C33.4297 27.0576 33.5187 26.9279 33.6137 26.8513C33.7045 26.7781 33.786 26.7351 33.8978 26.7017C34.0147 26.6667 34.1535 26.6667 34.4312 26.6667H35.3333C35.8 26.6667 36.0333 26.6667 36.2116 26.5758C36.3684 26.4959 36.4959 26.3685 36.5758 26.2117C36.6666 26.0334 36.6666 25.8 36.6666 25.3333V19.6429C36.6666 19.1986 36.6666 18.9764 36.584 18.8051C36.5021 18.635 36.3649 18.4978 36.1949 18.4159C36.0235 18.3333 35.8013 18.3333 35.357 18.3333C35.0354 18.3333 34.8746 18.3333 34.7451 18.2897C34.6054 18.2426 34.5075 18.18 34.4061 18.073C34.3122 17.9737 34.2355 17.8077 34.082 17.4758C33.5896 16.4104 32.9152 15.4463 32.0987 14.6234C31.9257 14.4491 31.8392 14.3619 31.7882 14.2781C31.7395 14.1982 31.7111 14.1293 31.6894 14.0382C31.6666 13.9428 31.6666 13.8342 31.6666 13.617V11.7676C31.6666 11.1676 31.6666 10.8675 31.5416 10.6658C31.4322 10.4892 31.2606 10.3598 31.0607 10.3031C30.8324 10.2383 30.544 10.3207 29.967 10.4856L26.0127 11.6154C25.9455 11.6346 25.9119 11.6442 25.8777 11.6509C25.8474 11.6569 25.8167 11.6612 25.7859 11.6638C25.7512 11.6667 25.7163 11.6667 25.6464 11.6667H24.9317M8.33314 21.6667C8.33314 17.8266 10.4977 14.492 13.6732 12.8165M8.33314 21.6667H6.66659C4.82564 21.6667 3.33325 20.1743 3.33325 18.3333C3.33325 17.0995 4.00358 16.0223 4.99992 15.4459M24.9999 10.8333C24.9999 14.055 22.3882 16.6667 19.1666 16.6667C15.9449 16.6667 13.3333 14.055 13.3333 10.8333C13.3333 7.61167 15.9449 5 19.1666 5C22.3882 5 24.9999 7.61167 24.9999 10.8333Z" stroke="#14AE5C" stroke-width="4" stroke-linecap="round" stroke-linejoin="round"/>
</svg>
