<svg width="18" height="18" viewBox="0 0 18 18" fill="none" xmlns="http://www.w3.org/2000/svg">
<path fill-rule="evenodd" clip-rule="evenodd" d="M16.3125 14.625C16.3125 14.9357 16.0607 15.1875 15.75 15.1875H2.25C1.93934 15.1875 1.6875 14.9357 1.6875 14.625V3.375C1.6875 3.06434 1.93934 2.8125 2.25 2.8125C2.56066 2.8125 2.8125 3.06434 2.8125 3.375V10.0104L6.37945 6.89062C6.5795 6.71551 6.87483 6.70437 7.0875 6.86391L11.2226 9.96539L15.3795 6.32812C15.528 6.18111 15.7457 6.12855 15.945 6.19162C16.1442 6.2547 16.292 6.42301 16.3289 6.62871C16.3657 6.8344 16.2855 7.04357 16.1205 7.17188L11.6205 11.1094C11.4205 11.2845 11.1252 11.2956 10.9125 11.1361L6.77742 8.03602L2.8125 11.5052V14.0625H15.75C16.0607 14.0625 16.3125 14.3143 16.3125 14.625V14.625Z" fill="white"/>
</svg>
