<svg width="18" height="18" viewBox="0 0 18 18" fill="none" xmlns="http://www.w3.org/2000/svg">
<path fill-rule="evenodd" clip-rule="evenodd" d="M9.84375 12.6562C9.84375 13.1222 9.46599 13.5 9 13.5C8.53401 13.5 8.15625 13.1222 8.15625 12.6562C8.15625 12.1903 8.53401 11.8125 9 11.8125C9.46599 11.8125 9.84375 12.1903 9.84375 12.6562V12.6562ZM9 5.0625C7.44891 5.0625 6.1875 6.19805 6.1875 7.59375V7.875C6.1875 8.18566 6.43934 8.4375 6.75 8.4375C7.06066 8.4375 7.3125 8.18566 7.3125 7.875V7.59375C7.3125 6.82031 8.06977 6.1875 9 6.1875C9.93023 6.1875 10.6875 6.82031 10.6875 7.59375C10.6875 8.36719 9.93023 9 9 9C8.68934 9 8.4375 9.25184 8.4375 9.5625V10.125C8.4375 10.4357 8.68934 10.6875 9 10.6875C9.31066 10.6875 9.5625 10.4357 9.5625 10.125V10.0744C10.845 9.83883 11.8125 8.81578 11.8125 7.59375C11.8125 6.19805 10.5511 5.0625 9 5.0625V5.0625ZM16.3125 9C16.3125 13.0386 13.0386 16.3125 9 16.3125C4.96142 16.3125 1.6875 13.0386 1.6875 9C1.6875 4.96142 4.96142 1.6875 9 1.6875C13.0368 1.69176 16.3082 4.96318 16.3125 9V9ZM15.1875 9C15.1875 5.58274 12.4173 2.8125 9 2.8125C5.58274 2.8125 2.8125 5.58274 2.8125 9C2.8125 12.4173 5.58274 15.1875 9 15.1875C12.4157 15.1836 15.1836 12.4157 15.1875 9V9Z" fill="white"/>
</svg>
