<svg width="20" height="20" viewBox="0 0 20 20" fill="none" xmlns="http://www.w3.org/2000/svg">
<path fill-rule="evenodd" clip-rule="evenodd" d="M16.5855 10.398L11.523 15.4605C11.3032 15.6803 10.9468 15.6803 10.727 15.4605C10.5072 15.2407 10.5072 14.8843 10.727 14.6645L14.8298 10.5625H3.8125C3.50184 10.5625 3.25 10.3107 3.25 10C3.25 9.68934 3.50184 9.4375 3.8125 9.4375H14.8298L10.727 5.33547C10.5072 5.11568 10.5072 4.75932 10.727 4.53953C10.9468 4.31974 11.3032 4.31974 11.523 4.53953L16.5855 9.60203C16.6911 9.70754 16.7504 9.85071 16.7504 10C16.7504 10.1493 16.6911 10.2925 16.5855 10.398V10.398Z" fill="white"/>
</svg>
