<svg width="20" height="20" viewBox="0 0 20 20" fill="none" xmlns="http://www.w3.org/2000/svg">
<g clip-path="url(#clip0_736_125)">
<path fill-rule="evenodd" clip-rule="evenodd" d="M18.0406 16.5625C16.8508 14.5055 15.0172 13.0305 12.8773 12.3313C15.053 11.0361 16.0951 8.44698 15.4235 6.00575C14.7518 3.56451 12.5319 1.87287 10 1.87287C7.46806 1.87287 5.24816 3.56451 4.57652 6.00575C3.90487 8.44698 4.94704 11.0361 7.12266 12.3313C4.98281 13.0297 3.14922 14.5047 1.95938 16.5625C1.84059 16.7562 1.83627 16.9991 1.94811 17.1969C2.05995 17.3947 2.27031 17.5162 2.49752 17.5142C2.72473 17.5123 2.93298 17.3872 3.04141 17.1875C4.51328 14.6437 7.11484 13.125 10 13.125C12.8852 13.125 15.4867 14.6437 16.9586 17.1875C17.067 17.3872 17.2753 17.5123 17.5025 17.5142C17.7297 17.5162 17.9401 17.3947 18.0519 17.1969C18.1637 16.9991 18.1594 16.7562 18.0406 16.5625V16.5625ZM5.625 7.5C5.625 5.08375 7.58375 3.125 10 3.125C12.4162 3.125 14.375 5.08375 14.375 7.5C14.375 9.91625 12.4162 11.875 10 11.875C7.58483 11.8724 5.62758 9.91517 5.625 7.5V7.5Z" fill="white"/>
</g>
<defs>
<clipPath id="clip0_736_125">
<rect width="20" height="20" fill="white"/>
</clipPath>
</defs>
</svg>
