<svg width="18" height="18" viewBox="0 0 18 18" fill="none" xmlns="http://www.w3.org/2000/svg">
<g clip-path="url(#clip0_736_100)">
<path fill-rule="evenodd" clip-rule="evenodd" d="M15.023 5.78953L11.0855 1.85203C10.9799 1.74657 10.8367 1.68738 10.6875 1.6875H3.9375C3.31618 1.6875 2.8125 2.19118 2.8125 2.8125V15.1875C2.8125 15.8088 3.31618 16.3125 3.9375 16.3125H14.0625C14.6838 16.3125 15.1875 15.8088 15.1875 15.1875V6.1875C15.1876 6.03827 15.1284 5.89511 15.023 5.78953V5.78953ZM11.25 3.60773L13.2673 5.625H11.25V3.60773ZM14.0625 15.1875H3.9375V2.8125H10.125V6.1875C10.125 6.49816 10.3768 6.75 10.6875 6.75H14.0625V15.1875V15.1875ZM11.8125 9.5625C11.8125 9.87316 11.5607 10.125 11.25 10.125H6.75C6.43934 10.125 6.1875 9.87316 6.1875 9.5625C6.1875 9.25184 6.43934 9 6.75 9H11.25C11.5607 9 11.8125 9.25184 11.8125 9.5625V9.5625ZM11.8125 11.8125C11.8125 12.1232 11.5607 12.375 11.25 12.375H6.75C6.43934 12.375 6.1875 12.1232 6.1875 11.8125C6.1875 11.5018 6.43934 11.25 6.75 11.25H11.25C11.5607 11.25 11.8125 11.5018 11.8125 11.8125V11.8125Z" fill="white"/>
</g>
<defs>
<clipPath id="clip0_736_100">
<rect width="18" height="18" fill="white"/>
</clipPath>
</defs>
</svg>
