<svg width="20" height="20" viewBox="0 0 20 20" fill="none" xmlns="http://www.w3.org/2000/svg">
<path fill-rule="evenodd" clip-rule="evenodd" d="M17.3272 13.7453C16.8936 12.9984 16.2491 10.8852 16.2491 8.125C16.2491 4.67322 13.4509 1.875 9.99909 1.875C6.54731 1.875 3.74909 4.67322 3.74909 8.125C3.74909 10.8859 3.10378 12.9984 2.67019 13.7453C2.44482 14.1318 2.44318 14.6092 2.66589 14.9973C2.8886 15.3853 3.30171 15.6247 3.74909 15.625H6.93738C7.23465 17.0796 8.51439 18.1243 9.99909 18.1243C11.4838 18.1243 12.7635 17.0796 13.0608 15.625H16.2491C16.6963 15.6244 17.1092 15.3849 17.3317 14.9969C17.5542 14.609 17.5525 14.1317 17.3272 13.7453ZM9.99909 16.875C9.20471 16.8748 8.4967 16.3739 8.23191 15.625H11.7663C11.5015 16.3739 10.7935 16.8748 9.99909 16.875ZM3.74909 14.375C4.35066 13.3406 4.99909 10.9437 4.99909 8.125C4.99909 5.36358 7.23767 3.125 9.99909 3.125C12.7605 3.125 14.9991 5.36358 14.9991 8.125C14.9991 10.9414 15.646 13.3383 16.2491 14.375H3.74909Z" fill="white"/>
</svg>
