<svg width="32" height="32" viewBox="0 0 32 32" fill="none" xmlns="http://www.w3.org/2000/svg">
<path d="M6.6669 17.3333C6.6669 19.5312 7.5532 21.522 8.98789 22.9679C9.12625 23.1074 9.19544 23.1771 9.23627 23.2442C9.27524 23.3081 9.29793 23.3632 9.31533 23.4361C9.33357 23.5124 9.33357 23.5993 9.33357 23.7731V26.9333C9.33357 27.3067 9.33357 27.4934 9.40623 27.636C9.47014 27.7614 9.57213 27.8634 9.69757 27.9273C9.84018 28 10.0269 28 10.4002 28H12.9336C13.3069 28 13.4936 28 13.6362 27.9273C13.7617 27.8634 13.8637 27.7614 13.9276 27.636C14.0002 27.4934 14.0002 27.3067 14.0002 26.9333V26.4C14.0002 26.0266 14.0002 25.8399 14.0729 25.6973C14.1368 25.5719 14.2388 25.4699 14.3642 25.406C14.5068 25.3333 14.6935 25.3333 15.0669 25.3333H16.9336C17.3069 25.3333 17.4936 25.3333 17.6362 25.406C17.7617 25.4699 17.8637 25.5719 17.9276 25.6973C18.0002 25.8399 18.0002 26.0266 18.0002 26.4V26.9333C18.0002 27.3067 18.0002 27.4934 18.0729 27.636C18.1368 27.7614 18.2388 27.8634 18.3642 27.9273C18.5068 28 18.6935 28 19.0669 28H21.6003C21.9737 28 22.1604 28 22.303 27.9273C22.4284 27.8634 22.5304 27.7614 22.5943 27.636C22.667 27.4934 22.667 27.3067 22.667 26.9333V25.6324C22.667 25.363 22.667 25.2283 22.7053 25.1202C22.7421 25.0165 22.7884 24.944 22.8669 24.867C22.9489 24.7867 23.0877 24.7222 23.3652 24.5934C24.6749 23.9854 25.7924 23.0334 26.6018 21.8536C26.7442 21.6461 26.8153 21.5423 26.8913 21.4811C26.964 21.4225 27.0292 21.3881 27.1186 21.3613C27.2122 21.3333 27.3232 21.3333 27.5453 21.3333H28.267C28.6404 21.3333 28.827 21.3333 28.9697 21.2607C29.0951 21.1968 29.1971 21.0948 29.261 20.9693C29.3337 20.8267 29.3337 20.64 29.3337 20.2667V15.7143C29.3337 15.3589 29.3337 15.1812 29.2676 15.044C29.2021 14.908 29.0923 14.7982 28.9563 14.7327C28.8192 14.6667 28.6414 14.6667 28.286 14.6667C28.0287 14.6667 27.9001 14.6667 27.7964 14.6317C27.6847 14.5941 27.6064 14.544 27.5253 14.4584C27.4501 14.379 27.3888 14.2462 27.266 13.9806C26.8721 13.1283 26.3325 12.357 25.6793 11.6987C25.541 11.5593 25.4718 11.4896 25.4309 11.4225C25.392 11.3585 25.3693 11.3034 25.3519 11.2306C25.3337 11.1542 25.3337 11.0673 25.3337 10.8936V9.4141C25.3337 8.93404 25.3337 8.69401 25.2337 8.53267C25.1461 8.39134 25.0089 8.28784 24.8489 8.24246C24.6663 8.19066 24.4356 8.2566 23.974 8.38848L20.8105 9.29229C20.7568 9.30765 20.7299 9.31533 20.7026 9.32072C20.6783 9.32551 20.6538 9.32895 20.6291 9.33101C20.6014 9.33333 20.5734 9.33333 20.5175 9.33333H19.9457M6.6669 17.3333C6.6669 14.2612 8.39852 11.5936 10.939 10.2532M6.6669 17.3333H5.33366C3.8609 17.3333 2.66699 16.1394 2.66699 14.6667C2.66699 13.6796 3.20326 12.8178 4.00033 12.3568M20.0003 8.66667C20.0003 11.244 17.911 13.3333 15.3337 13.3333C12.7563 13.3333 10.667 11.244 10.667 8.66667C10.667 6.08934 12.7563 4 15.3337 4C17.911 4 20.0003 6.08934 20.0003 8.66667Z" stroke="#23824F" stroke-width="2.5" stroke-linecap="round" stroke-linejoin="round"/>
</svg>
